<?xml version="1.0" encoding="UTF-8" standalone="no"?>
<!DOCTYPE svg PUBLIC "-//W3C//DTD SVG 1.1//EN"
 "http://www.w3.org/Graphics/SVG/1.1/DTD/svg11.dtd">
<!-- Generated by graphviz version 2.46.0 (20210118.1747)
 -->
<!-- Title: G Pages: 1 -->
<svg width="4531pt" height="373pt"
 viewBox="0.00 0.00 4531.00 373.00" xmlns="http://www.w3.org/2000/svg" xmlns:xlink="http://www.w3.org/1999/xlink">
<g id="graph0" class="graph" transform="scale(1 1) rotate(0) translate(4 369)">
<title>G</title>
<polygon fill="white" stroke="transparent" points="-4,4 -4,-369 4527,-369 4527,4 -4,4"/>
<!-- struct1 -->
<g id="node1" class="node">
<title>struct1</title>
<polygon fill="none" stroke="black" points="0,-0.5 0,-364.5 239,-364.5 239,-0.5 0,-0.5"/>
<text text-anchor="middle" x="119.5" y="-328.5" font-family="Times New Roman,serif" font-size="40.00"> </text>
<polyline fill="none" stroke="black" points="0,-312.5 239,-312.5 "/>
<text text-anchor="middle" x="119.5" y="-276.5" font-family="Times New Roman,serif" font-size="40.00"> </text>
<polyline fill="none" stroke="black" points="0,-260.5 239,-260.5 "/>
<text text-anchor="middle" x="119.5" y="-224.5" font-family="Times New Roman,serif" font-size="40.00">20210000001</text>
<polyline fill="none" stroke="black" points="0,-208.5 239,-208.5 "/>
<text text-anchor="middle" x="119.5" y="-172.5" font-family="Times New Roman,serif" font-size="40.00"> </text>
<polyline fill="none" stroke="black" points="0,-156.5 239,-156.5 "/>
<text text-anchor="middle" x="119.5" y="-120.5" font-family="Times New Roman,serif" font-size="40.00">20210000003</text>
<polyline fill="none" stroke="black" points="0,-104.5 239,-104.5 "/>
<text text-anchor="middle" x="119.5" y="-68.5" font-family="Times New Roman,serif" font-size="40.00">20210000004</text>
<polyline fill="none" stroke="black" points="0,-52.5 239,-52.5 "/>
<text text-anchor="middle" x="119.5" y="-16.5" font-family="Times New Roman,serif" font-size="40.00"> </text>
</g>
<!-- node2A0 -->
<g id="node2" class="node">
<title>node2A0</title>
<polygon fill="none" stroke="black" points="1470,-253.5 275,-253.5 275,-215.5 1470,-215.5 1470,-253.5"/>
<text text-anchor="middle" x="872.5" y="-238.3" font-family="Times New Roman,serif" font-size="14.00">tabla hash</text>
<text text-anchor="middle" x="872.5" y="-223.3" font-family="Times New Roman,serif" font-size="14.00">es una estructura de datos, en gran medida como una matriz, excepto que cada valor (objeto) se almacena mediante una clave. Se trata de un almac√©n b√°sicos de clave&#45;valor. Primero, se crea una tabla hash vac√≠a.</text>
</g>
<!-- struct1&#45;&gt;node2A0 -->
<g id="edge1" class="edge">
<title>struct1:f2&#45;&gt;node2A0</title>
<path fill="none" stroke="black" d="M239,-234.5C247.48,-234.5 256.03,-234.5 264.63,-234.5"/>
<polygon fill="black" stroke="black" points="264.75,-238 274.75,-234.5 264.75,-231 264.75,-238"/>
</g>
<!-- node4A0 -->
<g id="node5" class="node">
<title>node4A0</title>
<polygon fill="none" stroke="black" points="1046,-151.5 699,-151.5 699,-113.5 1046,-113.5 1046,-151.5"/>
<text text-anchor="middle" x="872.5" y="-136.3" font-family="Times New Roman,serif" font-size="14.00">resumen primer parcial &#45;fisica2</text>
<text text-anchor="middle" x="872.5" y="-121.3" font-family="Times New Roman,serif" font-size="14.00">contenido referente a los temas vistos para el primer parcial</text>
</g>
<!-- struct1&#45;&gt;node4A0 -->
<g id="edge4" class="edge">
<title>struct1:f4&#45;&gt;node4A0</title>
<path fill="none" stroke="black" d="M239,-130.5C390.42,-130.5 562.22,-131.08 688.52,-131.62"/>
<polygon fill="black" stroke="black" points="688.67,-135.12 698.68,-131.66 688.7,-128.12 688.67,-135.12"/>
</g>
<!-- node5A0 -->
<g id="node7" class="node">
<title>node5A0</title>
<polygon fill="none" stroke="black" points="936.5,-95.5 808.5,-95.5 808.5,-57.5 936.5,-57.5 936.5,-95.5"/>
<text text-anchor="middle" x="872.5" y="-80.3" font-family="Times New Roman,serif" font-size="14.00">tareas pendientes</text>
<text text-anchor="middle" x="872.5" y="-65.3" font-family="Times New Roman,serif" font-size="14.00">proyecto fase 3 edd</text>
</g>
<!-- struct1&#45;&gt;node5A0 -->
<g id="edge6" class="edge">
<title>struct1:f5&#45;&gt;node5A0</title>
<path fill="none" stroke="black" d="M239,-78.5C441.26,-78.5 679.9,-77.46 797.86,-76.88"/>
<polygon fill="black" stroke="black" points="798.23,-80.38 808.21,-76.83 798.19,-73.38 798.23,-80.38"/>
</g>
<!-- node2A1 -->
<g id="node3" class="node">
<title>node2A1</title>
<polygon fill="none" stroke="black" points="4021,-253.5 1506,-253.5 1506,-215.5 4021,-215.5 4021,-253.5"/>
<text text-anchor="middle" x="2763.5" y="-238.3" font-family="Times New Roman,serif" font-size="14.00">block chain</text>
<text text-anchor="middle" x="2763.5" y="-223.3" font-family="Times New Roman,serif" font-size="14.00">øQue es blockchain? &#160;Blockchain es una base de datos que almacena informaci√≥n en bloques en lugar de tablas como las bases de datos tradicionales. Cuando el bloque alcanza su capacidad m√°xima de datos, se ìencadenaî a los bloques anteriores. Una vez que se encadenan permanecer√°n vinculados para siempre, creando una l√≠nea de tiempo en los datos de la ìcadena de bloquesî que permite una mayor transparencia de las transacciones. </text>
</g>
<!-- node2A0&#45;&gt;node2A1 -->
<g id="edge2" class="edge">
<title>node2A0&#45;&gt;node2A1</title>
<path fill="none" stroke="black" d="M1470.22,-234.5C1478.67,-234.5 1487.16,-234.5 1495.7,-234.5"/>
<polygon fill="black" stroke="black" points="1495.73,-238 1505.73,-234.5 1495.73,-231 1495.73,-238"/>
</g>
<!-- node2A2 -->
<g id="node4" class="node">
<title>node2A2</title>
<polygon fill="none" stroke="black" points="4523,-253.5 4057,-253.5 4057,-215.5 4523,-215.5 4523,-253.5"/>
<text text-anchor="middle" x="4290" y="-238.3" font-family="Times New Roman,serif" font-size="14.00">pendientes</text>
<text text-anchor="middle" x="4290" y="-223.3" font-family="Times New Roman,serif" font-size="14.00">&#45; hacer hoja de calificacion fase 3 &#160;&#45;calificar tareas &#160;&#45; reporte de notas estudiantes</text>
</g>
<!-- node2A1&#45;&gt;node2A2 -->
<g id="edge3" class="edge">
<title>node2A1&#45;&gt;node2A2</title>
<path fill="none" stroke="black" d="M4021.27,-234.5C4029.89,-234.5 4038.36,-234.5 4046.68,-234.5"/>
<polygon fill="black" stroke="black" points="4046.74,-238 4056.74,-234.5 4046.74,-231 4046.74,-238"/>
</g>
<!-- node4A1 -->
<g id="node6" class="node">
<title>node4A1</title>
<polygon fill="none" stroke="black" points="2949,-151.5 2578,-151.5 2578,-113.5 2949,-113.5 2949,-151.5"/>
<text text-anchor="middle" x="2763.5" y="-136.3" font-family="Times New Roman,serif" font-size="14.00">Lab edd &#45;18/10</text>
<text text-anchor="middle" x="2763.5" y="-121.3" font-family="Times New Roman,serif" font-size="14.00">informacion sobre lo visto en el laboratorio el dia 29 de octubre</text>
</g>
<!-- node4A0&#45;&gt;node4A1 -->
<g id="edge5" class="edge">
<title>node4A0&#45;&gt;node4A1</title>
<path fill="none" stroke="black" d="M1046.14,-132.5C1398.37,-132.5 2197.71,-132.5 2567.78,-132.5"/>
<polygon fill="black" stroke="black" points="2567.79,-136 2577.79,-132.5 2567.79,-129 2567.79,-136"/>
</g>
</g>
</svg>
